<?xml version="1.0" standalone="no"?>
<!DOCTYPE svg PUBLIC "-//W3C//DTD SVG 20010904//EN"
 "http://www.w3.org/TR/2001/REC-SVG-20010904/DTD/svg10.dtd">
<svg version="1.0" xmlns="http://www.w3.org/2000/svg"
 width="227.000000pt" height="98.000000pt" viewBox="0 0 227.000000 98.000000"
 preserveAspectRatio="xMidYMid meet">

<g transform="translate(0.000000,98.000000) scale(0.100000,-0.100000)"
fill="#000000" stroke="none">
<path d="M89 897 c-79 -53 -79 -151 0 -204 42 -29 86 -29 130 -2 l34 20 -21
22 c-19 18 -24 19 -48 8 -34 -15 -80 1 -90 31 -18 56 32 100 89 77 25 -11 31
-9 49 9 l21 21 -34 20 c-44 27 -88 27 -130 -2z"/>
<path d="M331 888 c-5 -18 -23 -71 -40 -118 -17 -47 -31 -86 -31 -87 0 -2 13
-3 30 -3 19 0 33 7 40 20 8 14 21 20 45 20 24 0 39 -6 47 -20 8 -12 24 -20 41
-20 33 0 34 -6 -20 143 -36 96 -36 97 -69 97 -29 0 -34 -4 -43 -32z m59 -104
c0 -8 -7 -14 -15 -14 -15 0 -21 21 -9 33 10 9 24 -2 24 -19z"/>
<path d="M510 800 l0 -120 73 0 c88 0 111 13 109 61 -2 32 -7 98 -11 127 0 6
-10 21 -21 32 -16 16 -33 20 -85 20 l-65 0 0 -120z m105 45 c0 -13 -8 -21 -22
-23 -17 -3 -23 2 -23 16 0 10 3 22 7 26 13 13 38 1 38 -19z m15 -95 c0 -16 -7
-20 -30 -20 -23 0 -30 4 -30 20 0 16 7 20 30 20 23 0 30 -4 30 -20z"/>
<path d="M746 812 c-22 -59 -41 -112 -43 -118 -2 -6 6 -14 18 -17 15 -4 28 2
44 19 28 30 79 33 97 4 12 -19 68 -29 68 -12 0 4 -18 56 -40 116 -22 61 -40
111 -40 113 0 2 -15 3 -32 3 -33 0 -33 -1 -72 -108z m84 -29 c0 -7 -7 -13 -15
-13 -16 0 -19 9 -9 35 5 13 8 14 15 3 5 -7 9 -19 9 -25z"/>
<path d="M950 800 l0 -120 30 0 30 0 0 60 c0 33 4 60 8 60 4 0 24 -27 43 -60
30 -54 37 -60 67 -60 l32 0 0 120 0 120 -30 0 -30 0 0 -60 c0 -33 -3 -60 -8
-60 -4 0 -24 27 -45 60 -32 52 -41 60 -67 60 l-30 0 0 -120z"/>
<path d="M1222 810 c-23 -61 -42 -115 -42 -120 0 -19 55 -10 68 10 8 14 23 20
47 20 24 0 37 -6 45 -20 14 -27 76 -29 65 -2 -4 9 -22 59 -40 109 -42 115 -40
113 -74 113 -26 0 -30 -6 -69 -110z m82 -16 c9 -22 8 -24 -9 -24 -8 0 -15 9
-15 20 0 24 15 27 24 4z"/>
<path d="M1380 889 c0 -27 3 -30 26 -27 l27 3 -2 -92 -2 -93 35 0 36 0 0 89 0
90 28 3 c21 2 28 9 30 31 l3 27 -90 0 -91 0 0 -31z"/>
<path d="M1570 834 c0 -47 5 -95 11 -107 31 -61 115 -77 166 -33 27 23 28 29
31 125 l4 101 -31 0 -31 0 0 -84 c0 -85 -12 -116 -43 -116 -34 1 -42 20 -45
110 l-4 90 -29 0 -29 0 0 -86z"/>
<path d="M1844 873 c-9 -26 -29 -81 -44 -120 l-28 -73 33 0 c24 0 34 5 38 20
4 16 14 20 47 20 33 0 43 -4 47 -20 4 -15 14 -20 39 -20 19 0 34 1 34 3 0 1
-20 54 -44 117 -41 110 -45 115 -74 118 -28 3 -31 -1 -48 -45z m63 -99 c-3 -3
-12 -4 -20 -2 -11 2 -12 9 -5 28 l10 25 11 -23 c5 -12 8 -25 4 -28z"/>
<path d="M2020 800 l0 -120 35 0 34 0 3 68 3 67 38 -67 c39 -70 48 -77 84 -70
22 4 23 7 23 123 l0 119 -35 0 -34 0 -3 -62 -3 -63 -40 63 c-36 55 -44 62 -72
62 l-33 0 0 -120z"/>
<path d="M1735 260 c-9 -15 4 -30 26 -30 12 0 19 7 19 20 0 21 -33 29 -45 10z"/>
<path d="M30 160 c0 -93 1 -100 20 -100 19 0 20 7 20 100 0 93 -1 100 -20 100
-19 0 -20 -7 -20 -100z"/>
<path d="M203 195 c-29 -20 -37 -59 -19 -94 38 -72 146 -47 146 34 0 60 -75
96 -127 60z m87 -60 c0 -29 -28 -47 -53 -34 -40 23 -6 90 35 68 10 -5 18 -21
18 -34z"/>
<path d="M440 134 c0 -67 2 -74 19 -74 17 0 20 8 23 53 3 48 5 52 30 55 26 3
27 1 30 -50 3 -45 6 -53 23 -53 25 0 32 43 16 97 -13 41 -24 46 -98 46 l-43
-1 0 -73z"/>
<path d="M715 188 c-55 -43 -11 -126 60 -115 19 3 35 2 35 -3 0 -17 -41 -31
-70 -25 -17 4 -31 2 -35 -6 -21 -33 93 -41 125 -9 17 17 20 33 20 98 l0 78
-55 0 c-41 1 -62 -4 -80 -18z m79 -24 c23 -22 20 -43 -9 -56 -29 -13 -55 3
-55 34 0 15 13 25 47 37 1 1 9 -6 17 -15z"/>
<path d="M980 192 c-27 -22 -29 -75 -4 -103 14 -16 28 -20 56 -17 25 2 38 -1
38 -9 0 -17 -35 -26 -70 -18 -23 5 -30 3 -30 -8 0 -19 21 -27 69 -27 59 0 75
25 76 118 l0 76 -57 3 c-42 1 -63 -3 -78 -15z m90 -57 c0 -15 -7 -26 -20 -30
-41 -13 -70 43 -33 64 25 13 53 -5 53 -34z"/>
<path d="M1248 203 c-10 -2 -18 -11 -18 -19 0 -10 10 -14 35 -12 19 1 40 -3
47 -10 9 -9 5 -12 -18 -12 -34 0 -74 -24 -74 -45 0 -29 29 -43 85 -43 l55 1 0
53 c0 79 -36 107 -112 87z m72 -93 c0 -6 -7 -13 -15 -16 -20 -8 -48 3 -40 16
8 13 55 13 55 0z"/>
<path d="M1474 195 c-3 -7 -4 -39 -2 -71 2 -47 7 -59 21 -62 14 -3 17 4 17 35
0 47 19 77 46 71 15 -2 20 -13 22 -56 3 -44 6 -52 23 -52 17 0 19 7 19 59 0
42 -5 62 -16 72 -22 18 -124 21 -130 4z"/>
<path d="M1740 136 c0 -70 2 -76 20 -76 19 0 21 5 18 72 -2 60 -6 73 -20 76
-16 3 -18 -6 -18 -72z"/>
<path d="M1900 192 c-29 -24 -20 -60 18 -68 47 -10 53 -14 46 -25 -4 -6 -20
-8 -39 -5 -36 7 -58 -10 -34 -25 23 -14 86 -10 103 7 19 18 21 50 4 60 -6 4
-25 10 -42 14 -37 7 -33 25 6 25 33 0 47 13 28 25 -24 15 -66 11 -90 -8z"/>
<path d="M2127 203 c-29 -7 -13 -28 22 -29 43 -1 67 -24 25 -24 -34 0 -74 -24
-74 -45 0 -29 29 -43 85 -43 l55 1 0 53 c0 80 -36 107 -113 87z m73 -93 c0 -6
-7 -13 -15 -16 -20 -8 -48 3 -40 16 8 13 55 13 55 0z"/>
</g>
</svg>
